<svg width="57" height="62" viewBox="0 0 57 62" fill="none" xmlns="http://www.w3.org/2000/svg">
<path d="M53.037 49.61C52.7145 51.9877 51.4645 54.1413 49.5599 55.6007C47.6553 57.0602 45.2508 57.707 42.871 57.4C41.2363 57.1921 39.6625 56.6472 38.249 55.8C35.6312 54.203 33.2878 52.1946 31.309 49.852C35.327 44.884 37.761 40.352 38.675 36.3C39.0701 34.5916 39.1716 32.8284 38.975 31.086C38.7493 29.5898 38.1876 28.1641 37.332 26.916C36.3674 25.5432 35.0801 24.4285 33.5834 23.6701C32.0867 22.9118 30.4265 22.5329 28.749 22.567C27.0734 22.5465 25.4176 22.9317 23.9231 23.6897C22.4285 24.4477 21.1395 25.556 20.166 26.92C19.3105 28.1681 18.7487 29.5938 18.523 31.09C18.2651 32.8302 18.3672 34.6049 18.823 36.304C19.737 40.352 22.231 44.951 26.189 49.916C24.2254 52.2736 21.8793 54.2843 19.249 55.864C17.8346 56.7105 16.2596 57.2537 14.624 57.459C13.0555 57.6354 11.4677 57.4252 9.99903 56.847C8.52948 56.2392 7.24487 55.2569 6.27319 53.998C5.30152 52.7391 4.67671 51.2476 4.46103 49.672C4.26166 48.0571 4.4495 46.4179 5.00903 44.89C5.19103 44.275 5.49703 43.664 5.80103 42.929C6.22703 41.949 6.71503 40.905 7.20103 39.862L7.26303 39.739C11.463 30.601 15.963 21.279 20.655 12.204L20.837 11.835C21.325 10.917 21.81 9.935 22.298 9.014C22.7581 8.05 23.3304 7.14372 24.003 6.314C24.5997 5.60316 25.3448 5.03159 26.186 4.63944C27.0271 4.2473 27.944 4.04409 28.872 4.04409C29.8001 4.04409 30.7169 4.2473 31.5581 4.63944C32.3993 5.03159 33.1443 5.60316 33.741 6.314C34.4137 7.14372 34.986 8.05 35.446 9.014C35.934 9.934 36.419 10.914 36.907 11.832L37.091 12.201C41.716 21.336 46.222 30.658 50.421 39.801V39.861C50.909 40.841 51.335 41.948 51.821 42.928C52.121 43.665 52.431 44.277 52.613 44.889C53.1138 46.4109 53.2585 48.0274 53.036 49.614L53.037 49.61ZM28.749 46.726C25.463 42.556 23.333 38.631 22.601 35.321C22.3039 34.0965 22.2421 32.8266 22.419 31.579C22.5391 30.6554 22.8726 29.7724 23.393 29C24.0004 28.1497 24.8054 27.4596 25.7385 26.9893C26.6717 26.519 27.7052 26.2824 28.75 26.3C29.7981 26.2621 30.8388 26.4897 31.7754 26.9618C32.712 27.4338 33.514 28.1349 34.107 29C34.6273 29.7709 34.9605 30.6526 35.08 31.575C35.2567 32.8226 35.195 34.0924 34.898 35.317C34.169 38.567 32.038 42.492 28.75 46.722L28.749 46.726ZM56.203 43.539C55.903 42.804 55.593 42.007 55.289 41.332C54.801 40.232 54.316 39.185 53.889 38.205L53.829 38.145C49.629 28.945 45.129 19.625 40.377 10.427L40.195 10.058C39.707 9.138 39.222 8.158 38.734 7.177C38.1346 5.97187 37.3998 4.83891 36.544 3.8C35.6296 2.61971 34.4577 1.66384 33.1178 1.00528C31.7778 0.346731 30.3051 0.0028954 28.812 0C27.3231 0.00720359 25.8538 0.340288 24.5074 0.975859C23.1609 1.61143 21.9699 2.53408 21.018 3.679C20.1818 4.73071 19.4485 5.86022 18.828 7.052C18.34 8.032 17.855 9.013 17.367 9.933L17.185 10.299C12.498 19.499 7.93203 28.819 3.73303 38.017L3.67303 38.14C3.24703 39.12 2.75903 40.164 2.27303 41.267C1.94703 41.993 1.64303 42.731 1.35903 43.474C0.580011 45.5903 0.32842 47.8646 0.626031 50.1C0.947892 52.3371 1.84683 54.4518 3.23433 56.236C4.62183 58.0201 6.45007 59.4121 8.53903 60.275C10.0987 60.9343 11.7767 61.2678 13.47 61.255C13.9997 61.2453 14.5283 61.2042 15.053 61.132C17.202 60.8569 19.2725 60.1479 21.139 59.048C23.9813 57.3421 26.5298 55.1888 28.686 52.671C30.8564 55.1746 33.4024 57.3259 36.233 59.048C38.0995 60.1479 40.1701 60.8569 42.319 61.132C42.8438 61.2042 43.3724 61.2453 43.902 61.255C45.5959 61.2737 47.2751 60.94 48.833 60.275C50.9238 59.4144 52.7538 58.0231 54.1421 56.2386C55.5304 54.4541 56.429 52.3382 56.749 50.1C57.2004 47.9073 57.0112 45.6311 56.204 43.543L56.203 43.539Z" fill="#E0565B"/>
</svg>
