<svg width="72" height="62" viewBox="0 0 72 62" fill="none" xmlns="http://www.w3.org/2000/svg">
<path d="M31.5 62C48.897 62 63 48.1208 63 31C63 13.8792 48.897 0 31.5 0C14.103 0 0 13.8792 0 31C0 48.1208 14.103 62 31.5 62Z" fill="white"/>
<path d="M31.5 61.5C48.6208 61.5 62.5 47.8447 62.5 31C62.5 14.1553 48.6208 0.5 31.5 0.5C14.3792 0.5 0.5 14.1553 0.5 31C0.5 47.8447 14.3792 61.5 31.5 61.5Z" stroke="#707070"/>
<path d="M10.7848 32.6591V22.9091H12.7237V24.1001H12.8114C12.8976 23.9093 13.0223 23.7154 13.1854 23.5185C13.3516 23.3184 13.567 23.1522 13.8317 23.0199C14.0994 22.8845 14.4318 22.8168 14.8288 22.8168C15.3459 22.8168 15.8229 22.9522 16.2599 23.223C16.697 23.4908 17.0463 23.8955 17.3079 24.4371C17.5695 24.9757 17.7003 25.6513 17.7003 26.4638C17.7003 27.2547 17.5726 27.9226 17.3171 28.4673C17.0647 29.009 16.7201 29.4199 16.283 29.6999C15.8491 29.9769 15.3628 30.1154 14.8242 30.1154C14.4426 30.1154 14.1179 30.0523 13.8501 29.9261C13.5855 29.8 13.3685 29.6415 13.1992 29.4506C13.0299 29.2567 12.9007 29.0613 12.8114 28.8643H12.7514V32.6591H10.7848ZM12.7099 26.4545C12.7099 26.8762 12.7683 27.244 12.8853 27.5579C13.0022 27.8718 13.1715 28.1165 13.3931 28.2919C13.6147 28.4643 13.884 28.5504 14.201 28.5504C14.5211 28.5504 14.7919 28.4627 15.0135 28.2873C15.2351 28.1088 15.4028 27.8626 15.5167 27.5487C15.6336 27.2317 15.6921 26.867 15.6921 26.4545C15.6921 26.0452 15.6352 25.6851 15.5213 25.3743C15.4074 25.0634 15.2397 24.8203 15.0181 24.6449C14.7965 24.4695 14.5241 24.3817 14.201 24.3817C13.8809 24.3817 13.6101 24.4664 13.3885 24.6357C13.17 24.8049 13.0022 25.045 12.8853 25.3558C12.7683 25.6667 12.7099 26.0329 12.7099 26.4545ZM19.0114 30V22.9091H20.918V24.1463H20.9918C21.1211 23.7062 21.3381 23.3738 21.6428 23.1491C21.9474 22.9214 22.2983 22.8075 22.6953 22.8075C22.7938 22.8075 22.9 22.8137 23.0138 22.826C23.1277 22.8383 23.2277 22.8552 23.3139 22.8768V24.6218C23.2216 24.5941 23.0939 24.5695 22.9308 24.5479C22.7676 24.5264 22.6184 24.5156 22.483 24.5156C22.1937 24.5156 21.9351 24.5787 21.7074 24.7049C21.4827 24.828 21.3042 25.0004 21.1719 25.2219C21.0426 25.4435 20.978 25.699 20.978 25.9883V30H19.0114ZM27.2045 30.1385C26.4874 30.1385 25.8672 29.9862 25.344 29.6815C24.8239 29.3737 24.4223 28.9459 24.1391 28.3981C23.856 27.8472 23.7144 27.2086 23.7144 26.4822C23.7144 25.7498 23.856 25.1096 24.1391 24.5618C24.4223 24.0109 24.8239 23.5831 25.344 23.2784C25.8672 22.9706 26.4874 22.8168 27.2045 22.8168C27.9215 22.8168 28.5402 22.9706 29.0603 23.2784C29.5835 23.5831 29.9867 24.0109 30.2698 24.5618C30.5529 25.1096 30.6945 25.7498 30.6945 26.4822C30.6945 27.2086 30.5529 27.8472 30.2698 28.3981C29.9867 28.9459 29.5835 29.3737 29.0603 29.6815C28.5402 29.9862 27.9215 30.1385 27.2045 30.1385ZM27.2137 28.6151C27.5399 28.6151 27.8123 28.5227 28.0308 28.3381C28.2493 28.1503 28.414 27.8949 28.5248 27.5717C28.6386 27.2486 28.6956 26.8808 28.6956 26.4684C28.6956 26.056 28.6386 25.6882 28.5248 25.3651C28.414 25.0419 28.2493 24.7865 28.0308 24.5987C27.8123 24.411 27.5399 24.3171 27.2137 24.3171C26.8844 24.3171 26.6074 24.411 26.3827 24.5987C26.1611 24.7865 25.9934 25.0419 25.8795 25.3651C25.7687 25.6882 25.7133 26.056 25.7133 26.4684C25.7133 26.8808 25.7687 27.2486 25.8795 27.5717C25.9934 27.8949 26.1611 28.1503 26.3827 28.3381C26.6074 28.5227 26.8844 28.6151 27.2137 28.6151ZM31.9733 22.9091H33.9399V30.3509C33.9399 30.8987 33.8322 31.3419 33.6167 31.6804C33.4013 32.0189 33.092 32.2667 32.6888 32.4237C32.2887 32.5806 31.8102 32.6591 31.2531 32.6591C31.1854 32.6591 31.1208 32.6576 31.0592 32.6545C30.9946 32.6545 30.9269 32.6529 30.8561 32.6499V31.1126C30.9084 31.1156 30.9546 31.1172 30.9946 31.1172C31.0315 31.1203 31.0715 31.1218 31.1146 31.1218C31.4316 31.1218 31.6532 31.0541 31.7794 30.9187C31.9086 30.7863 31.9733 30.5863 31.9733 30.3185V22.9091ZM32.952 21.995C32.6627 21.995 32.4134 21.8981 32.2041 21.7042C31.9948 21.5072 31.8902 21.2718 31.8902 20.9979C31.8902 20.727 31.9948 20.4947 32.2041 20.3008C32.4134 20.1038 32.6627 20.0053 32.952 20.0053C33.2474 20.0053 33.4983 20.1038 33.7045 20.3008C33.9137 20.4947 34.0184 20.727 34.0184 20.9979C34.0184 21.2718 33.9137 21.5072 33.7045 21.7042C33.4983 21.8981 33.2474 21.995 32.952 21.995ZM38.7468 30.1385C38.0174 30.1385 37.3896 29.9908 36.8633 29.6953C36.3401 29.3968 35.9369 28.9751 35.6538 28.4304C35.3706 27.8826 35.229 27.2347 35.229 26.4869C35.229 25.7575 35.3706 25.1173 35.6538 24.5664C35.9369 24.0155 36.3355 23.5862 36.8494 23.2784C37.3665 22.9706 37.9728 22.8168 38.6683 22.8168C39.1361 22.8168 39.5716 22.8922 39.9748 23.043C40.381 23.1907 40.735 23.4138 41.0366 23.7124C41.3413 24.0109 41.5782 24.3864 41.7475 24.8388C41.9168 25.2881 42.0014 25.8144 42.0014 26.4176V26.9577H36.0138V25.739H40.1502C40.1502 25.4558 40.0887 25.205 39.9656 24.9865C39.8424 24.768 39.6716 24.5972 39.4531 24.4741C39.2377 24.3479 38.9869 24.2848 38.7006 24.2848C38.4021 24.2848 38.1374 24.354 37.9066 24.4925C37.6789 24.628 37.5004 24.8111 37.3711 25.0419C37.2418 25.2696 37.1757 25.5236 37.1726 25.8036V26.9624C37.1726 27.3132 37.2372 27.6164 37.3665 27.8718C37.4988 28.1272 37.685 28.3242 37.9251 28.4627C38.1651 28.6012 38.4498 28.6705 38.7791 28.6705C38.9976 28.6705 39.1977 28.6397 39.3793 28.5781C39.5608 28.5166 39.7163 28.4242 39.8455 28.3011C39.9748 28.178 40.0733 28.0272 40.141 27.8487L41.9599 27.9688C41.8675 28.4058 41.6783 28.7874 41.392 29.1136C41.1089 29.4368 40.7427 29.6892 40.2933 29.8707C39.8471 30.0492 39.3316 30.1385 38.7468 30.1385ZM46.4886 30.1385C45.7623 30.1385 45.1375 29.9846 44.6143 29.6768C44.0942 29.366 43.6941 28.9351 43.4141 28.3842C43.1371 27.8333 42.9986 27.1993 42.9986 26.4822C42.9986 25.7559 43.1386 25.1188 43.4187 24.571C43.7018 24.0201 44.1035 23.5908 44.6236 23.283C45.1437 22.9722 45.7623 22.8168 46.4794 22.8168C47.098 22.8168 47.6397 22.9291 48.1044 23.1538C48.5691 23.3784 48.9369 23.6939 49.2077 24.1001C49.4786 24.5064 49.6278 24.9834 49.6555 25.5312H47.7997C47.7474 25.1773 47.6089 24.8926 47.3842 24.6772C47.1626 24.4587 46.8718 24.3494 46.5117 24.3494C46.207 24.3494 45.9408 24.4325 45.7131 24.5987C45.4884 24.7618 45.313 25.0004 45.1868 25.3143C45.0606 25.6282 44.9975 26.0083 44.9975 26.4545C44.9975 26.907 45.0591 27.2917 45.1822 27.6087C45.3084 27.9257 45.4853 28.1673 45.7131 28.3335C45.9408 28.4996 46.207 28.5827 46.5117 28.5827C46.7364 28.5827 46.938 28.5366 47.1165 28.4442C47.2981 28.3519 47.4473 28.218 47.5643 28.0426C47.6843 27.8641 47.7628 27.6502 47.7997 27.4009H49.6555C49.6248 27.9426 49.477 28.4196 49.2124 28.832C48.9508 29.2414 48.5891 29.5614 48.1275 29.7923C47.6658 30.0231 47.1196 30.1385 46.4886 30.1385ZM54.6863 22.9091V24.3864H50.4161V22.9091H54.6863ZM51.3856 21.2102H53.3522V27.821C53.3522 28.0026 53.3799 28.1442 53.4353 28.2457C53.4907 28.3442 53.5676 28.4135 53.6661 28.4535C53.7677 28.4935 53.8846 28.5135 54.017 28.5135C54.1093 28.5135 54.2016 28.5058 54.2939 28.4904C54.3863 28.4719 54.4571 28.4581 54.5063 28.4489L54.8156 29.9123C54.7171 29.9431 54.5786 29.9785 54.4001 30.0185C54.2216 30.0616 54.0046 30.0877 53.7492 30.0969C53.2752 30.1154 52.8598 30.0523 52.5028 29.9077C52.1488 29.763 51.8734 29.5384 51.6764 29.2337C51.4794 28.929 51.3825 28.5443 51.3856 28.0795V21.2102ZM12.7514 36.5455V46H10.7848V36.5455H12.7514ZM17.5306 46.1385C16.8135 46.1385 16.1934 45.9862 15.6702 45.6815C15.1501 45.3737 14.7484 44.9459 14.4653 44.3981C14.1821 43.8472 14.0406 43.2086 14.0406 42.4822C14.0406 41.7498 14.1821 41.1096 14.4653 40.5618C14.7484 40.0109 15.1501 39.5831 15.6702 39.2784C16.1934 38.9706 16.8135 38.8168 17.5306 38.8168C18.2477 38.8168 18.8663 38.9706 19.3865 39.2784C19.9097 39.5831 20.3128 40.0109 20.596 40.5618C20.8791 41.1096 21.0207 41.7498 21.0207 42.4822C21.0207 43.2086 20.8791 43.8472 20.596 44.3981C20.3128 44.9459 19.9097 45.3737 19.3865 45.6815C18.8663 45.9862 18.2477 46.1385 17.5306 46.1385ZM17.5399 44.6151C17.8661 44.6151 18.1385 44.5227 18.357 44.3381C18.5755 44.1503 18.7401 43.8949 18.8509 43.5717C18.9648 43.2486 19.0218 42.8808 19.0218 42.4684C19.0218 42.056 18.9648 41.6882 18.8509 41.3651C18.7401 41.0419 18.5755 40.7865 18.357 40.5987C18.1385 40.411 17.8661 40.3171 17.5399 40.3171C17.2106 40.3171 16.9336 40.411 16.7089 40.5987C16.4873 40.7865 16.3196 41.0419 16.2057 41.3651C16.0949 41.6882 16.0395 42.056 16.0395 42.4684C16.0395 42.8808 16.0949 43.2486 16.2057 43.5717C16.3196 43.8949 16.4873 44.1503 16.7089 44.3381C16.9336 44.5227 17.2106 44.6151 17.5399 44.6151ZM25.4941 48.8068C24.857 48.8068 24.3107 48.7191 23.8552 48.5437C23.4028 48.3713 23.0427 48.1359 22.7749 47.8374C22.5072 47.5388 22.3333 47.2034 22.2533 46.831L24.0722 46.5863C24.1276 46.7279 24.2153 46.8602 24.3353 46.9833C24.4553 47.1064 24.6138 47.2049 24.8108 47.2788C25.0109 47.3557 25.254 47.3942 25.5402 47.3942C25.968 47.3942 26.3204 47.2895 26.5974 47.0803C26.8775 46.8741 27.0175 46.5278 27.0175 46.0415V44.7443H26.9344C26.8482 44.9413 26.719 45.1275 26.5466 45.3029C26.3743 45.4783 26.1527 45.6214 25.8818 45.7322C25.611 45.843 25.2878 45.8984 24.9124 45.8984C24.3799 45.8984 23.8952 45.7753 23.4582 45.5291C23.0242 45.2798 22.678 44.8997 22.4195 44.3888C22.164 43.8749 22.0363 43.2255 22.0363 42.4407C22.0363 41.6374 22.1671 40.9665 22.4287 40.4279C22.6903 39.8893 23.0381 39.4862 23.472 39.2184C23.9091 38.9506 24.3876 38.8168 24.9078 38.8168C25.3048 38.8168 25.6372 38.8845 25.9049 39.0199C26.1727 39.1522 26.3881 39.3184 26.5512 39.5185C26.7174 39.7154 26.8451 39.9093 26.9344 40.1001H27.0083V38.9091H28.961V46.0692C28.961 46.6725 28.8133 47.1772 28.5178 47.5835C28.2224 47.9897 27.8131 48.2944 27.2899 48.4975C26.7697 48.7037 26.1711 48.8068 25.4941 48.8068ZM25.5356 44.4212C25.8526 44.4212 26.1204 44.3427 26.3389 44.1857C26.5605 44.0257 26.7297 43.7979 26.8467 43.5025C26.9667 43.204 27.0267 42.8469 27.0267 42.4315C27.0267 42.016 26.9682 41.6559 26.8513 41.3512C26.7343 41.0434 26.5651 40.8049 26.3435 40.6357C26.1219 40.4664 25.8526 40.3817 25.5356 40.3817C25.2124 40.3817 24.9401 40.4695 24.7185 40.6449C24.4969 40.8172 24.3292 41.0573 24.2153 41.3651C24.1014 41.6728 24.0445 42.0283 24.0445 42.4315C24.0445 42.8408 24.1014 43.1947 24.2153 43.4933C24.3322 43.7887 24.5 44.018 24.7185 44.1811C24.9401 44.3411 25.2124 44.4212 25.5356 44.4212ZM33.7298 46.1385C33.0128 46.1385 32.3926 45.9862 31.8694 45.6815C31.3493 45.3737 30.9477 44.9459 30.6645 44.3981C30.3814 43.8472 30.2398 43.2086 30.2398 42.4822C30.2398 41.7498 30.3814 41.1096 30.6645 40.5618C30.9477 40.0109 31.3493 39.5831 31.8694 39.2784C32.3926 38.9706 33.0128 38.8168 33.7298 38.8168C34.4469 38.8168 35.0655 38.9706 35.5857 39.2784C36.1089 39.5831 36.512 40.0109 36.7952 40.5618C37.0783 41.1096 37.2199 41.7498 37.2199 42.4822C37.2199 43.2086 37.0783 43.8472 36.7952 44.3981C36.512 44.9459 36.1089 45.3737 35.5857 45.6815C35.0655 45.9862 34.4469 46.1385 33.7298 46.1385ZM33.7391 44.6151C34.0653 44.6151 34.3377 44.5227 34.5562 44.3381C34.7747 44.1503 34.9394 43.8949 35.0502 43.5717C35.164 43.2486 35.221 42.8808 35.221 42.4684C35.221 42.056 35.164 41.6882 35.0502 41.3651C34.9394 41.0419 34.7747 40.7865 34.5562 40.5987C34.3377 40.411 34.0653 40.3171 33.7391 40.3171C33.4098 40.3171 33.1328 40.411 32.9081 40.5987C32.6865 40.7865 32.5188 41.0419 32.4049 41.3651C32.2941 41.6882 32.2387 42.056 32.2387 42.4684C32.2387 42.8808 32.2941 43.2486 32.4049 43.5717C32.5188 43.8949 32.6865 44.1503 32.9081 44.3381C33.1328 44.5227 33.4098 44.6151 33.7391 44.6151Z" fill="black"/>
</svg>
